<svg>
	<defs>
		<symbol id="angle-arrow-down" viewBox="0 0 64 39" fill="currentColor" stroke="currentColor">
			<title>angle-arrow-down</title>
			<path d="M63.36 4.004L60.155.741c-.427-.436-.919-.654-1.475-.654-.555 0-1.047.218-1.475.654L32 26.4 6.798.74C6.37.306 5.878.088 5.323.088c-.556 0-1.048.218-1.476.654L.642 4.005C.213 4.44 0 4.941 0 5.507c0 .565.214 1.066.642 1.501l29.883 30.427c.427.435.92.652 1.475.652.556 0 1.047-.217 1.474-.652L63.361 7.008c.427-.435.639-.936.639-1.501 0-.566-.212-1.067-.64-1.503z"/>
		</symbol>

		<symbol id="arrow-right" viewBox="0 0 448 512" fill="currentColor" stroke="currentColor">
			<title>arrow-right</title>
			<path d="M190.5 66.9l22.2-22.2c9.4-9.4 24.6-9.4 33.9 0L441 239c9.4 9.4 9.4 24.6 0 33.9L246.6 467.3c-9.4 9.4-24.6 9.4-33.9 0l-22.2-22.2c-9.5-9.5-9.3-25 .4-34.3L311.4 296H24c-13.3 0-24-10.7-24-24v-32c0-13.3 10.7-24 24-24h287.4L190.9 101.2c-9.8-9.3-10-24.8-.4-34.3z"></path>
		</symbol>
	</defs>
</svg>
