<?xml version="1.0" encoding="UTF-8"?>
<svg width="124px" height="121px" viewBox="0 0 124 121" version="1.1" xmlns="http://www.w3.org/2000/svg" xmlns:xlink="http://www.w3.org/1999/xlink">
    <!-- Generator: sketchtool 62 (101010) - https://sketch.com -->
    <title>DE3F1D93-0B6E-4D0A-A997-28EACA71CB31@1x</title>
    <desc>Created with sketchtool.</desc>
    <g id="Onboarding-Option-2" stroke="none" stroke-width="1" fill="none" fill-rule="evenodd">
        <g id="Roster-Empty-State" transform="translate(-489.000000, -285.000000)" fill-rule="nonzero">
            <g id="undraw_No_data_re_kwbl-2" transform="translate(489.000000, 285.000000)">
                <g id="undraw_No_data_re_kwbl">
                    <path d="M78.5173745,27.0277843 L45.0529216,27.0277843 C43.4651087,27.0297079 42.1784136,28.3111671 42.1764821,29.8925188 L42.1764821,103.965003 L41.7929568,104.081512 L33.583587,106.58529 C32.7734851,106.831293 31.9163598,106.377546 31.6679282,105.571174 L7.24881123,26.1320773 C7.00135884,25.3252134 7.4571215,24.4712605 8.26708232,24.2241642 L20.9177054,20.3663217 L57.5923089,9.18621795 L70.2428361,5.32837552 C70.6316561,5.20919626 71.0521059,5.24892649 71.4114823,5.43880627 C71.7708588,5.62868605 72.0396498,5.95312235 72.1585908,6.3405817 L78.4004262,26.6458197 L78.5173745,27.0277843 Z" id="Path" fill="#F2F2F2"></path>
                    <path d="M86.0606854,26.8245489 L78.5451593,2.30144829 C78.2926309,1.47623562 77.7221593,0.785107011 76.959342,0.380224325 C76.1965247,-0.0246583611 75.3039033,-0.110099797 74.4780011,0.142711172 L56.7093279,5.57591568 L20.0723872,16.7810665 L2.30371412,22.2161848 C0.584998633,22.7433956 -0.381878508,24.5612161 0.142683309,26.2791271 L25.8292074,110.089034 C26.2493209,111.456179 27.5126891,112.389901 28.9442829,112.391304 C29.2670541,112.391304 29.5880092,112.343066 29.8963619,112.247771 L42.0767787,108.523567 L42.4599307,108.404913 L42.4599307,108.004934 L42.0767787,108.121674 L29.7833627,111.88224 C28.2663228,112.344199 26.6612095,111.492393 26.1951444,109.978035 L0.510583925,26.1662145 C0.286593928,25.4383744 0.361679214,24.6514162 0.719275154,23.9789515 C1.07687109,23.3064868 1.68759317,22.8037735 2.41670947,22.5817157 L20.1853826,17.1465974 L56.822421,5.94336413 L74.5910941,0.508245842 C74.8649153,0.424766832 75.1495904,0.38220328 75.4358791,0.381936755 C76.6970759,0.384765633 77.8093325,1.20798817 78.1793086,2.41245102 L85.6603127,26.8245527 L85.7791128,27.2073075 L86.1776062,27.2073075 L86.0606854,26.8245489 Z" id="Path" fill="#3F3D56"></path>
                    <path d="M23.3556969,24.3913043 C22.5955157,24.3907601 21.9245123,23.8921984 21.7011554,23.1619646 L19.2263801,15.0383665 C19.0920729,14.5976644 19.1374999,14.1213917 19.3526645,13.7143541 C19.5678292,13.3073164 19.9351005,13.0028672 20.3736591,12.8680016 L54.1777735,2.4674999 C55.090861,2.18748688 56.0571448,2.7032923 56.337514,3.62037642 L58.8122893,11.7440692 C59.090735,12.6616705 58.5775434,13.6326243 57.6651063,13.9145286 L23.8608978,24.3150303 C23.6971992,24.3655189 23.5269313,24.3913043 23.3556969,24.3913043 L23.3556969,24.3913043 Z" id="Path" fill="#61366F"></path>
                    <ellipse id="Oval" fill="#61366F" cx="36.3861004" cy="4.7826087" rx="3.83011583" ry="3.82608696"></ellipse>
                    <ellipse id="Oval" fill="#FFFFFF" cx="36.3861004" cy="4.7826087" rx="2.39382239" ry="2.39130435"></ellipse>
                    <path d="M115.190734,111.434783 L50.4617761,111.434783 C49.5631965,111.433747 48.8350121,110.705467 48.8339768,109.806769 L48.8339768,32.2367093 C48.8349805,31.3379983 49.5631834,30.6096995 50.4617761,30.6086957 L115.190734,30.6086957 C116.089313,30.6097321 116.817496,31.3380118 116.818533,32.2367093 L116.818533,109.806769 C116.817464,110.705453 116.089299,111.433713 115.190734,111.434783 Z" id="Path" fill="#E6E6E6"></path>
                    <path d="M85.647945,26.7826087 L45.3830693,26.7826087 C43.5882056,26.7851517 42.1338143,28.2411907 42.1312741,30.0380877 L42.1312741,108.131283 L42.5138383,108.014469 L42.5138383,30.0380877 C42.5157649,28.4524596 43.7992355,27.167535 45.3830693,27.1656062 L85.7665628,27.1656062 L85.647945,26.7826087 Z M120.748205,26.7826087 L45.3830693,26.7826087 C43.5882056,26.7851517 42.1338143,28.2411907 42.1312741,30.0380877 L42.1312741,117.744521 C42.1338132,119.541418 43.5882052,120.997458 45.3830693,121 L120.748205,121 C122.543069,120.997458 123.997461,119.541418 124,117.744521 L124,30.0380877 C123.99746,28.2411907 122.543068,26.7851517 120.748205,26.7826087 L120.748205,26.7826087 Z M123.617436,117.744521 C123.615509,119.330149 122.332039,120.615074 120.748205,120.617002 L45.3830693,120.617002 C43.7992355,120.615074 42.5157649,119.330149 42.5138383,117.744521 L42.5138383,30.0380877 C42.5157649,28.4524596 43.7992355,27.167535 45.3830693,27.1656062 L120.748205,27.1656062 C122.332039,27.167535 123.615509,28.4524596 123.617436,30.0380877 L123.617436,117.744521 Z" id="Shape" fill="#3F3D56"></path>
                    <path d="M100.72778,35.3913043 L65.403494,35.3913043 C64.4496915,35.3902256 63.6767495,34.6137918 63.6756757,33.6556802 L63.6756757,25.1704067 C63.6767506,24.2122956 64.4496919,23.4358624 65.403494,23.4347826 L100.72778,23.4347826 C101.681582,23.4358624 102.454524,24.2122956 102.455598,25.1704067 L102.455598,33.6556802 C102.454525,34.6137918 101.681583,35.3902256 100.72778,35.3913043 Z" id="Path" fill="#61366F"></path>
                    <ellipse id="Oval" fill="#61366F" cx="82.8262548" cy="20.0869565" rx="3.83011583" ry="3.82608696"></ellipse>
                    <ellipse id="Oval" fill="#FFFFFF" cx="82.8262548" cy="20.0869565" rx="2.39382239" ry="2.39130435"></ellipse>
                </g>
            </g>
        </g>
    </g>
</svg>