<?xml version="1.0" encoding="UTF-8"?>
<svg viewBox="0 0 56 56" version="1.1" xmlns="http://www.w3.org/2000/svg" xmlns:xlink="http://www.w3.org/1999/xlink">
    <!-- Generator: sketchtool 62 (101010) - https://sketch.com -->
    <g stroke="none" stroke-width="1" fill="none" fill-rule="evenodd">
        <g transform="translate(-913.000000, -142.000000)" fill="currentColor">
            <g transform="translate(913.000000, 142.000000)">
                <path d="M56.0000562,27.9470522 C56.0285721,43.3741511 43.4474253,55.989056 28.0203264,55.999902 C21.3573416,56.0046366 15.2370827,53.6819912 10.4275175,49.8002648 C9.17688834,48.7909099 9.08340446,46.9166031 10.2198885,45.7801191 L11.4919693,44.5080383 C12.4639533,43.5360543 14.0156955,43.4296994 15.0925666,44.2840383 C18.6360348,47.0958935 23.1204386,48.7742002 28,48.7742002 C39.4828279,48.7742002 48.7742002,39.4810215 48.7742002,28 C48.7742002,16.5171797 39.4810215,7.22580743 28,7.22580743 C22.488745,7.22580743 17.4831798,9.36746901 13.766518,12.8632921 L19.4968091,18.5935832 C20.6348738,19.7316478 19.8288575,21.6774223 18.2195347,21.6774223 L1.80645186,21.6774223 C0.808725916,21.6774223 7.16227078e-13,20.8686964 7.16227078e-13,19.8709704 L7.16227078e-13,3.45788757 C7.16227078e-13,1.84856477 1.94577446,1.04254853 3.08383913,2.1805003 L8.65809795,7.75475912 C13.684889,2.95083911 20.4978092,-7.29490542e-14 28,-7.29490542e-14 C43.4462962,-7.29490542e-14 55.9714431,12.5074211 56.0000562,27.9470522 Z M35.5744564,36.8420211 L36.683505,35.4160532 C37.6023116,34.2347466 37.389489,32.5322786 36.2081823,31.6135849 L31.6129075,28.039407 L31.6129075,16.2580667 C31.6129075,14.7615343 30.3997622,13.5483889 28.9032297,13.5483889 L27.0967779,13.5483889 C25.6002454,13.5483889 24.3871001,14.7615343 24.3871001,16.2580667 L24.3871001,31.5735043 L31.7719882,37.3173438 C32.9532948,38.2360375 34.6556499,38.0233277 35.5744564,36.8420211 L35.5744564,36.8420211 Z"></path>
            </g>
        </g>
    </g>
</svg>