<?xml version="1.0" encoding="UTF-8"?>
<svg width="64px" height="88px" viewBox="0 0 64 88" version="1.1" xmlns="http://www.w3.org/2000/svg">
    <title>How To Icon</title>
    <desc>Created with sketchtool.</desc>
    <g id="Sign-in-and-Home" stroke="none" stroke-width="1" fill="none" fill-rule="evenodd">
        <g id="Help-page" transform="translate(-55.000000, -408.000000)" fill="#A9AEB1" fill-rule="nonzero">
            <g id="Group-2" transform="translate(55.000000, 408.000000)">
                <path d="M2,88.00075 C0.9531,88.00075 0,87.04763 0,86.00075 L0,25.81275 C0,25.04322 0.26953,24.63695 0.75,24.12525 L24.562,0.65625 C25.10888,0.13672 25.5854,0.00391 26.312,1.42108547e-14 L62,1.42108547e-14 C63.0469,1.42108547e-14 64,0.95312 64,2 L64,86 C64,87.0469 63.04688,88.00075 62,88.00075 L2,88.00075 Z M14.062,73.03175 L49.906,73.03175 C50.44116,73.039562 50.9568,72.83253 51.3396,72.45363 C51.71851,72.07863 51.93335,71.56691 51.93335,71.03173 C51.93335,70.49655 51.71851,69.98093 51.3396,69.60593 C50.95679,69.23093 50.44116,69.0239 49.906,69.03171 L14.062,69.03171 C13.52684,69.023898 13.0112,69.23093 12.6284,69.60593 C12.24949,69.98093 12.03465,70.49655 12.03465,71.03173 C12.03465,71.56691 12.24949,72.07863 12.6284,72.45363 C13.01121,72.83254 13.52684,73.03957 14.062,73.03175 Z M13.78075,62.71975 L13.8745,62.71975 L14.062,62.71975 L38.5,62.71975 C39.5898,62.700219 40.4648,61.80959 40.4648,60.71975 C40.4648,59.62595 39.5898,58.73925 38.5,58.71975 L14.062,58.71975 C13.53075,58.680688 13.0073,58.85647 12.605,59.20413 C12.20266,59.55179 11.95656,60.04788 11.9175,60.57913 C11.882343,61.11038 12.05812,61.63383 12.40578,62.03613 C12.75344,62.43457 13.24953,62.68066 13.78078,62.71975 L13.78075,62.71975 Z M6.87455,23.68875 L24.06255,23.68875 L24.06255,6.75075 L6.87455,23.68875 Z" id="How-to-Icon"></path>
            </g>
        </g>
    </g>
</svg>
