<?xml version="1.0" encoding="UTF-8"?>
<svg width="203px" height="163px" viewBox="0 0 203 163" version="1.1" xmlns="http://www.w3.org/2000/svg" xmlns:xlink="http://www.w3.org/1999/xlink">
    <!-- Generator: sketchtool 62 (101010) - https://sketch.com -->
    <title>43AB3A35-56BA-40A4-930C-69C417E32C89@1x</title>
    <desc>Created with sketchtool.</desc>
    <g id="Sign-in-and-Home" stroke="none" stroke-width="1" fill="none" fill-rule="evenodd">
        <g id="Help-page" transform="translate(-814.000000, -150.000000)" fill-rule="nonzero">
            <g id="Question-Illustration" transform="translate(814.000000, 150.000000)">
                <circle id="Oval" fill="#61366F" cx="100.120155" cy="149.321705" r="12.9263566"></circle>
                <path d="M174.473238,160.550704 C181.479426,158.44906 188.927968,156.257544 194.484382,151.261374 C199.449557,146.796826 202.801651,139.979324 200.744677,133.283812 C198.691921,126.602035 192.543395,122.146654 186.195248,119.930705 C182.594756,118.673887 178.827956,117.976609 175.062591,117.428868 C170.96937,116.833435 166.858058,116.34558 162.748704,115.876127 C146.109353,113.975236 129.407442,112.814014 112.642969,112.392458 C104.370807,112.184365 96.1001528,112.189377 87.8268225,112.30933 C80.4381594,112.416469 72.6565297,112.413796 65.8021605,109.277195 C60.4719468,106.838059 55.6342094,102.400462 54.1490101,96.5690464 C52.4345827,89.8375607 55.5968297,82.9824892 60.1330214,78.1073167 C62.524088,75.537568 65.3186302,73.3747241 68.2014463,71.3859576 C71.3288781,69.228438 74.56537,67.2237121 77.8719551,65.3523858 C84.3844432,61.6685151 91.1930716,58.5333422 98.2271053,55.9794385 C101.697067,54.7192022 105.218584,53.6319366 108.770648,52.6288978 C111.770014,51.7819267 114.778724,50.9337482 117.67751,49.7797786 C123.281342,47.5489609 128.611297,43.7702125 130.03615,37.5752678 C131.386569,31.7039499 129.109673,25.3301718 125.117974,20.9684753 C120.499865,15.922309 113.536645,13.7102271 106.860945,13.3523183 C99.3663634,12.950504 92.0444912,14.8239922 85.0002366,17.201689 C77.4870578,19.7376887 70.1358454,22.653637 62.4639455,24.707775 C54.8561679,26.742723 47.1012207,28.1825464 39.2695009,29.014175 C35.4356187,29.4219336 31.4858538,29.8823674 27.6291571,29.5701996 C24.3968932,29.308575 21.1811439,28.3591006 18.7990152,26.067866 C16.7564626,24.1032493 15.5396952,21.4032146 15.9580165,18.5538506 C16.0339985,18.0363228 16.8211054,18.2563424 16.745589,18.7707185 C16.2363747,22.2391944 18.5968568,25.4352991 21.5056292,27.0724873 C24.8674046,28.9646487 28.9581917,28.9672266 32.7009931,28.7508264 C40.8164367,28.2612523 48.8769577,27.0974015 56.7989718,25.2713429 C64.5832533,23.4954932 72.0895088,20.9568449 79.5872674,18.2449758 C86.7081927,15.6694025 93.988321,13.1556301 101.595891,12.59777 C108.196867,12.1137193 115.140722,13.0742476 120.891329,16.5198217 C125.945322,19.5480109 129.661777,24.5980439 130.845976,30.3930752 C132.003153,36.0558706 130.400489,41.7555829 126.108845,45.7072774 C121.665343,49.7987945 115.572623,51.5480415 109.894641,53.1591029 C102.693051,55.2024698 95.645881,57.5910084 88.8246255,60.692349 C81.9104514,63.8270587 75.2793744,67.55064 69.00488,71.8218281 C62.9483634,75.9557524 56.971289,81.157271 55.0557786,88.5321409 C54.1635128,91.9674415 54.3282561,95.6110009 55.8212335,98.855778 C57.1487327,101.740914 59.33503,104.167805 61.8819536,106.039714 C67.9587501,110.505975 75.6176337,111.422975 82.9578854,111.514199 C91.2019708,111.616656 99.4463174,111.338757 107.693079,111.473954 C124.499692,111.749466 141.271913,112.771248 158.009744,114.539302 C162.203828,114.982715 166.392612,115.472829 170.576096,116.009646 C174.339005,116.49259 178.114577,116.972428 181.814118,117.830105 C188.392256,119.355137 194.793281,122.287458 198.881885,127.858263 C200.696516,130.272942 201.8207,133.134432 202.134467,136.137361 C202.420693,139.271015 201.652627,142.410548 200.234126,145.198225 C197.094462,151.368383 191.213533,155.292967 184.968214,157.871346 C181.623138,159.252359 178.15337,160.298575 174.690383,161.337364 C174.185906,161.488694 173.97032,160.701596 174.473259,160.550723 L174.473238,160.550704 Z" id="Path" fill="#F2F2F2"></path>
                <circle id="Oval" fill="#F2F2F2" cx="16.7674419" cy="18.7209302" r="6.24031008"></circle>
                <circle id="Oval" fill="#F2F2F2" cx="62.2325581" cy="30.3100775" r="6.24031008"></circle>
                <circle id="Oval" fill="#F2F2F2" cx="100.565891" cy="6.24031008" r="6.24031008"></circle>
                <circle id="Oval" fill="#F2F2F2" cx="122.852713" cy="34.7674419" r="6.24031008"></circle>
                <circle id="Oval" fill="#F2F2F2" cx="91.6511628" cy="65.9689922" r="6.24031008"></circle>
                <circle id="Oval" fill="#F2F2F2" cx="50.6434109" cy="82.0155039" r="6.24031008"></circle>
                <circle id="Oval" fill="#F2F2F2" cx="93.4341085" cy="106.085271" r="6.24031008"></circle>
                <circle id="Oval" fill="#F2F2F2" cx="140.682171" cy="119.457364" r="6.24031008"></circle>
                <circle id="Oval" fill="#F2F2F2" cx="195.953488" cy="116.782946" r="6.24031008"></circle>
                <path d="M97.1848659,18.7209302 C77.6320683,18.860268 61.6224516,34.7816071 61.3446997,54.37231 C61.3421268,54.5531806 61.3410853,55.8249872 61.3410853,57.4883953 C61.3410853,62.5671739 65.45002,66.6843604 70.5185933,66.6849488 L70.5186123,66.6849488 C72.9554428,66.6844139 75.2921682,65.7135179 77.0143336,63.9860137 C78.7364991,62.2585095 79.7029111,59.9160284 79.7008039,57.4742923 C79.699871,56.3427477 79.6993053,55.5595909 79.6993053,55.5115097 C79.6975699,47.1477904 85.6211943,39.9601649 93.8178433,38.3803146 C102.014492,36.8004644 110.176546,41.2731681 113.271518,49.0406864 C116.366489,56.8082046 113.523046,65.6837309 106.494372,70.1948732 L106.497557,70.1987484 C106.497557,70.1987484 93.4350465,78.6250327 89.4526311,90.1843286 L89.4560172,90.1851462 C88.7557491,92.5531723 88.4009083,95.0102225 88.4025105,97.4800194 C88.4025105,98.4952703 88.4621166,107.378423 88.5772845,114.588364 C88.6610694,119.764327 92.8730832,123.915945 98.0393249,123.914729 L98.0393439,123.914729 C100.559306,123.914729 102.975164,122.90747 104.751504,121.116464 C106.527844,119.325458 107.517955,116.898528 107.502404,114.37354 C107.462408,107.770553 107.440772,100.081988 107.440772,99.5239402 C107.440772,92.4261582 114.274216,85.3541868 119.887354,80.7423766 C126.35108,75.4317416 131.002413,68.1946351 132.870648,60.0308938 C133.284049,58.3501319 133.511995,56.628963 133.550388,54.8983362 C133.550388,45.2582032 129.71062,36.0167536 122.883187,29.2248157 C116.055754,22.4328778 106.805377,18.6522356 97.1848659,18.7209302 Z" id="Path" fill="#61366F"></path>
                <ellipse id="Oval" fill="#2F2E41" cx="152.717054" cy="65.9689922" rx="8.46899225" ry="8.02325581"></ellipse>
                <polygon id="Path" fill="#A0616A" points="138.007013 156.899225 134.987238 156.899225 133.550388 144.418605 138.007752 144.418605"></polygon>
                <path d="M131.990307,157.790698 L138.007752,157.790698 L138.007752,162.248062 L128.20155,162.248062 L128.20155,162.248062 C128.20155,161.065896 128.600721,159.932148 129.311251,159.09623 C130.02178,158.260312 130.985466,157.790698 131.990307,157.790698 Z" id="Path" fill="#2F2E41"></path>
                <polygon id="Path" fill="#A0616A" points="163.859726 156.899225 160.839951 156.899225 159.403101 144.418605 163.860465 144.418605"></polygon>
                <path d="M157.84302,157.790698 L163.860465,157.790698 L163.860465,162.248062 L154.054264,162.248062 L154.054264,162.248062 C154.054264,161.065896 154.453434,159.932148 155.163964,159.09623 C155.874493,158.260312 156.838179,157.790698 157.84302,157.790698 Z" id="Path" fill="#2F2E41"></path>
                <circle id="Oval" fill="#A0616A" cx="151.379845" cy="67.751938" r="6.24031008"></circle>
                <path d="M156.565609,95.8213149 L159.557442,88.9208317 C161.046628,85.6033004 160.288252,81.703549 157.665463,79.1918336 C157.40261,78.9309862 157.123422,78.6872648 156.829607,78.4621587 C155.353398,77.3028556 153.534131,76.67101 151.659866,76.6666667 C150.399679,76.6715774 149.155382,76.9493617 148.011898,77.4810603 C147.913797,77.5247862 147.818609,77.5712449 147.720518,77.6177036 C147.53269,77.7078881 147.347652,77.8062712 147.167931,77.9073872 C144.791109,79.2773655 143.204492,81.6999008 142.893736,84.433468 L141.573352,95.5398299 C141.241295,96.4116137 129.393471,127.894214 133.537,151.929759 C133.627468,152.456593 134.048891,152.863045 134.576902,152.93272 L138.777591,153.506622 C139.413912,153.593989 140.009305,153.172846 140.14144,152.541921 L147.189732,118.815638 C147.280106,118.384402 147.652042,118.070793 148.090777,118.055896 C148.529511,118.040999 148.921708,118.328662 149.040902,118.752782 L158.999404,154.219899 C159.145251,154.749553 159.625359,155.116279 160.172769,155.116279 C160.252205,155.116279 160.331453,155.108464 160.409649,155.094416 L165.541238,154.102386 C166.159541,153.986393 166.587961,153.416581 166.529564,152.787878 C165.775458,144.34606 161.768051,102.06045 156.565609,95.8213149 Z" id="Path" fill="#2F2E41"></path>
                <path d="M125.546274,73.7317155 C125.448975,74.5242419 125.725864,75.3170419 126.302436,75.8967868 C126.879009,76.4765318 127.696037,76.7836682 128.533672,76.735551 L132.404966,85.5813953 L135.333333,81.453907 L131.208136,73.6865296 C131.025861,72.3239791 129.800591,71.306399 128.356097,71.3178295 C126.911603,71.3294539 125.704469,72.3664452 125.546271,73.7317128 L125.546274,73.7317155 Z" id="Path" fill="#A0616A"></path>
                <path d="M151.621678,105.170875 C152.37913,105.069921 153.057578,104.600031 153.474465,103.887642 C153.891351,103.175253 154.003852,102.293544 153.781696,101.479766 L161.186047,95.4661153 L156.728271,93.6046512 L150.380399,99.6006973 C149.152191,100.118854 148.465638,101.579484 148.782321,103.000584 C149.099004,104.421684 150.318824,105.354067 151.621678,105.170878 L151.621678,105.170875 Z" id="Path" fill="#A0616A"></path>
                <path d="M138.224016,90.9302326 C137.911379,90.9299612 137.599515,90.9023449 137.292839,90.8477745 C135.786533,90.5902758 134.521863,89.6760311 133.919858,88.409407 L128.489672,82.4624332 C128.257426,82.2080592 128.158687,81.8760449 128.218776,81.5515363 C128.278865,81.2270277 128.491938,80.9415915 128.803351,80.7684286 L132.666663,78.6205263 C132.954755,78.4603133 133.302169,78.4101062 133.631674,78.4810658 C133.96118,78.5520253 134.245472,78.7382711 134.421354,78.9984016 L138.248552,84.6615994 L145.577896,79.796488 C146.784145,79.2284432 148.271725,79.5408733 149.072454,80.5304348 C149.873182,81.5199963 149.744787,82.8872855 148.770835,83.7424087 L141.455485,89.7359351 C140.595871,90.5012651 139.434391,90.9305286 138.224016,90.9302326 Z" id="Path" fill="#2F2E41"></path>
                <path d="M158.256624,100.736434 C158.247762,100.736434 158.238836,100.736434 158.22997,100.736157 C157.908191,100.727548 157.604818,100.56931 157.395164,100.300727 L154.327477,96.3650655 C154.116128,96.0939482 154.020541,95.7362381 154.064912,95.382481 C154.109283,95.028724 154.289358,94.7128282 154.559556,94.5147553 L160.303842,90.3034295 L155.099925,83.4231978 C154.474185,82.2760239 154.708167,80.7977374 155.649574,79.9505426 C156.590981,79.1033477 157.954951,79.143598 158.853689,80.0450948 L165.178419,86.8421926 C166.188866,87.8572968 166.681588,89.353364 166.496594,90.8446097 C166.3116,92.3358554 165.472481,93.6321122 164.251706,94.3124758 L159.082383,100.344594 C158.86783,100.594511 158.56916,100.736434 158.256624,100.736434 L158.256624,100.736434 Z" id="Path" fill="#2F2E41"></path>
                <path d="M150.728234,86.4728682 C150.673541,86.4728682 150.618904,86.4696885 150.56465,86.4633893 C150.080037,86.4096717 149.674109,86.1035752 149.525321,85.6796669 L146.964474,78.5215516 C146.83179,78.1473163 147.022414,77.7412189 147.410967,77.5703614 L147.494056,77.5345725 C147.569405,77.5019017 147.644026,77.4696064 147.720207,77.4386799 C148.914363,76.9337701 150.214207,76.670407 151.530523,76.6666667 C153.239336,76.6695427 154.910047,77.1272466 156.337572,77.983594 C156.735748,78.2251836 156.848083,78.7131428 156.590051,79.0803048 L151.786164,85.9417836 C151.557216,86.2729568 151.157606,86.4735615 150.728234,86.4728682 Z" id="Path" fill="#E6E6E6"></path>
                <circle id="Oval" fill="#2F2E41" cx="159.403101" cy="59.7286822" r="2.6744186"></circle>
                <path d="M151.238341,57.0542636 L151.238341,57.0542636 C147.377723,57.0542636 144.248062,60.13939 144.248062,63.945092 L144.248062,66.8604651 L147.885508,66.8604651 L149.6252,63.9451079 L150.147161,66.8604651 L161.186047,66.8604651 L158.228621,63.945092 C158.228612,60.13939 155.09896,57.0542636 151.238341,57.0542636 L151.238341,57.0542636 Z" id="Path" fill="#2F2E41"></path>
                <path d="M161.186047,58.053982 C161.776345,56.2033711 163.607292,55.0454153 165.527285,55.3084283 C167.175189,55.5846481 168.478097,56.9127643 169.254413,58.396131 C170.03073,59.8794978 170.389207,61.5396794 170.911102,63.1310371 C171.432997,64.7223949 172.17317,66.3224154 173.490708,67.3525361 C174.808246,68.3826569 176.830034,68.6620882 178.124031,67.6024006 C177.820879,69.8672003 176.10744,71.6840115 173.86908,72.1140526 C171.63072,72.5440937 169.368815,71.4910389 168.252134,69.499022 C167.569355,68.2810308 167.393093,66.8534965 167.190617,65.4711141 C166.98814,64.0887316 166.725063,62.6584189 165.90988,61.52523 C165.094697,60.3920412 163.56875,59.6519319 162.273813,60.1680884 L161.186047,58.053982 Z" id="Path" fill="#2F2E41"></path>
                <polygon id="Path" fill="#FFB8B8" points="15.876708 156.899225 18.896483 156.898961 20.3333333 144.418605 15.875969 144.418869"></polygon>
                <path d="M15.7279625,157.130183 L26.2156092,157.130183 L26.2156092,161.169645 L19.7799997,161.169645 C17.5421203,161.169645 15.7279625,159.361113 15.7279625,157.130183 L15.7279625,157.130183 L15.7279625,157.130183 Z" id="Path" fill="#2F2E41" transform="translate(20.971786, 159.149914) rotate(179.997380) translate(-20.971786, -159.149914) "></path>
                <polygon id="Path" fill="#FFB8B8" points="4.2875607 156.899225 7.30733575 156.898961 8.74418605 144.418605 4.28682171 144.418869"></polygon>
                <path d="M3.75163114,157.130182 L14.2392779,157.130182 L14.2392779,161.169644 L7.80366828,161.169644 C5.56578896,161.169644 3.75163114,159.361113 3.75163114,157.130182 L3.75163114,157.130182 L3.75163114,157.130182 Z" id="Path" fill="#2F2E41" transform="translate(8.995455, 159.149913) rotate(179.997380) translate(-8.995455, -159.149913) "></path>
                <path d="M7.95533834,153.331436 L4.62635204,153.163736 C4.27962479,153.146279 3.95461931,152.996631 3.72384901,152.748183 C3.49307871,152.499734 3.3757461,152.173157 3.39802976,151.841316 L7.37687867,109.651163 L25.6997861,114.386427 L27.4651163,113.925188 L21.9446117,151.274763 C21.8477328,151.85354 21.3440302,152.290167 20.7330664,152.324973 L17.1444609,152.485109 C16.7816787,152.5044 16.4270341,152.377338 16.1665485,152.134742 C15.906063,151.892145 15.763534,151.556178 15.7735329,151.208331 L16.4237624,128.791782 C16.4300649,128.576915 16.263951,128.393028 16.0410254,128.368095 C15.8180998,128.343161 15.612213,128.485441 15.5666492,128.695916 L9.29594268,152.341445 C9.17387935,152.91997 8.64201945,153.335294 8.02574884,153.333333 C8.00243342,153.333333 7.97895399,153.332786 7.95533834,153.331436 Z" id="Path" fill="#2F2E41"></path>
                <circle id="Oval" fill="#FFB8B8" cx="16.7674419" cy="67.751938" r="6.24031008"></circle>
                <path d="M6.08184224,87.375125 L6.83815949,103.4095 L7.1115675,109.243029 C7.13385817,109.762504 7.47434038,110.216877 7.97255976,110.392022 L25.7104029,116.705722 C25.8536891,116.758063 26.0055078,116.784218 26.1583691,116.782946 C26.511383,116.78457 26.8499206,116.645156 27.0962356,116.396672 C27.3425505,116.148188 27.475476,115.811988 27.464485,115.465282 L26.73728,86.6348673 C26.6387483,81.7553578 23.0240978,77.6336607 18.1272173,76.8170246 C17.9556445,76.7913085 17.7810863,76.7655786 17.6065308,76.7427079 C14.6268419,76.3792712 11.636267,77.3305251 9.43859798,79.3407963 C7.16283554,81.3974963 5.93325354,84.3404661 6.08183384,87.3751167 L6.08184224,87.375125 Z" id="Path" fill="#CCCCCC"></path>
                <path d="M33.4573556,113.086586 C32.577646,112.827512 31.8787522,112.189032 31.572464,111.364628 C31.2661759,110.540225 31.3885445,109.626933 31.9024877,108.901512 L25.6821705,101.05171 L31.0499353,100.736434 L36.1339224,108.239078 C37.2573435,109.063379 37.5956769,110.533828 36.9365741,111.727527 C36.2774713,112.921225 34.810915,113.494095 33.4573614,113.086586 L33.4573556,113.086586 Z" id="Path" fill="#FFB8B8"></path>
                <path d="M28.706425,107.77198 C28.3810443,107.643707 28.1220105,107.394339 27.9870511,107.079449 L18.8264288,85.8800801 C18.3374171,84.7508622 18.5061289,83.4539839 19.2689545,82.47841 C20.0317801,81.502836 21.2727027,80.9969395 22.5238548,81.1514597 C23.775007,81.3059798 24.8461032,82.097416 25.333306,83.2273714 L34.4939112,104.427015 C34.7758188,105.081468 34.4591516,105.83407 33.7860254,106.109401 L29.7191755,107.767253 C29.3958,107.900208 29.0310907,107.901915 28.7064109,107.771994 L28.706425,107.77198 Z" id="Path" fill="#CCCCCC"></path>
                <path d="M15.1278236,106.452022 L23.1881261,89.8759915 C23.5117703,89.2122388 24.2745891,88.9551165 24.8933159,89.3012255 L36.5928458,95.8638326 C37.2108442,96.2114387 37.4502414,97.0307323 37.1279898,97.6952657 L29.0676796,114.271296 C28.7440343,114.935048 27.9812167,115.19217 27.3624897,114.846062 L15.6629702,108.283455 C15.0449709,107.93585 14.8055724,107.116556 15.1278236,106.452022 L15.1278236,106.452022 Z" id="Path" fill="#3F3D56"></path>
                <path d="M20.1510931,99.8620798 C19.8472465,99.0928858 19.1796792,98.5058138 18.350685,98.278765 C17.5216908,98.0517162 16.6288428,98.2114144 15.9427019,98.709466 L7.8664392,93.6046512 L7.85271318,98.4033874 L15.5241626,102.51532 C16.3982469,103.470223 17.8653949,103.689949 19.0047772,103.036591 C20.1441594,102.383233 20.6273543,101.045118 20.1510931,99.8620902 L20.1510931,99.8620798 Z" id="Path" fill="#FFB8B8"></path>
                <path d="M10.2424438,100.466994 L3.81229692,95.3167004 C2.40026763,94.8372835 1.31110545,93.6872821 0.898469363,92.2401101 C0.485833279,90.7929381 0.802343579,89.2331423 1.74522704,88.0671997 L7.5836321,80.3303066 C8.42227619,79.2940507 9.88577442,79.0367707 11.021101,79.7260065 C12.1564276,80.4152424 12.6198268,81.8423063 12.1095345,83.0778985 L7.49003647,90.7187441 L14.2787843,93.9746153 C14.5981096,94.1277452 14.8372428,94.4118842 14.9356528,94.7551088 C15.0340627,95.0983334 14.9823166,95.4677447 14.7935127,95.7698346 L12.0531377,100.155055 C11.8657976,100.454366 11.5617389,100.659329 11.2164445,100.719061 C11.2096674,100.720258 11.20284,100.721322 11.1960206,100.722348 C10.8569197,100.774157 10.5117358,100.681722 10.2424438,100.466994 Z" id="Path" fill="#CCCCCC"></path>
                <path d="M12.279977,71.6975446 C12.2174395,71.5292222 12.2430699,71.3437468 12.3493974,71.1951795 C12.4557249,71.0466123 12.6307828,70.951674 12.8235463,70.9380368 C13.2171583,70.9577359 13.5848987,71.124667 13.8413993,71.4000782 C14.101673,71.6761995 14.4046755,71.9155919 14.7406769,72.1105678 C15.0885758,72.2719206 15.5604202,72.2489256 15.7587494,71.9413075 C15.9449942,71.6524329 15.8173797,71.2656027 15.7046314,70.9300485 C15.4177235,70.0763551 15.257191,69.1909732 15.2273699,68.2978173 C15.1948909,67.3008779 15.3477607,66.260465 15.9476119,65.4829007 C16.7217757,64.4793794 18.1060715,64.0983982 19.41613,64.1260219 C20.7261885,64.1536455 22.0149974,64.5257384 23.3126523,64.76095 C23.7606353,64.8421504 24.2872155,64.8836707 24.5868439,64.5642062 C24.9054409,64.2245163 24.7884292,63.6747437 24.6529117,63.2160943 C24.3012589,62.0259513 23.9281955,60.7954627 23.1111695,59.8342727 C22.2277564,58.8355064 20.9658522,58.1818262 19.5795879,58.0048747 C18.248695,57.8531862 16.8976769,57.9943125 15.637612,58.4166505 C13.5846486,59.0120181 11.7781856,60.1699283 10.4598149,61.7355249 C9.1007732,63.4004711 8.51352128,65.4928157 8.82646856,67.5550431 C9.13220245,69.3511606 10.1666091,70.9738507 11.7211725,72.096011 L12.279977,71.6975446 Z" id="Path" fill="#2F2E41"></path>
            </g>
        </g>
    </g>
</svg>