<?xml version="1.0" encoding="UTF-8"?>
<svg width="212px" height="142px" viewBox="0 0 212 142" >
    <g id="Onboarding-Option-2" stroke="none" stroke-width="1" fill="none" fill-rule="evenodd">
        <g id="Landing-page" transform="translate(-859.000000, -1001.000000)" fill-rule="nonzero">
            <g id="Group-6" transform="translate(-1.000000, 976.000000)">
                <g id="undraw_reviews_lp8w" transform="translate(860.000000, 25.000000)">
                    <path d="M174.010748,84.6004142 C174.15426,84.5588608 174.30092,84.5283677 174.449366,84.5092185 L180.375526,72.8086012 L178.566277,70.1730442 L182.302814,67 L187,72.5851833 L177.433485,86.1137675 C177.915375,87.1613685 177.6799,88.3894076 176.842073,89.198081 C176.004245,90.0067543 174.738876,90.2273337 173.664002,89.752083 C172.589129,89.2768322 171.92902,88.2049114 172.00609,87.0598724 C172.08316,85.9148335 172.881327,84.9355866 174.010748,84.6004195 L174.010748,84.6004142 Z" id="Path" fill="#A0616A"></path>
                    <path d="M183.68092,69.1811764 C183.603314,69.2645767 183.514336,69.3361347 183.416728,69.3936454 L177.591508,72.8389631 C177.308448,73.0064341 176.969576,73.0452911 176.657141,72.9461031 C176.344707,72.846915 176.087273,72.6187502 175.947324,72.3169871 L173.114122,66.2101419 C172.864993,65.6789482 173.03509,65.0417154 173.51382,64.7127611 L177.124834,62.2065534 C177.589986,61.8839942 178.214241,61.9445743 178.611447,62.35082 L183.658657,67.518367 C184.105,67.9755513 184.114852,68.7117297 183.68091,69.1811764 L183.68092,69.1811764 Z" id="Path" fill="#CCCCCC"></path>
                    <polygon id="Path" fill="#A0616A" points="192 136.20922 188.832134 137 184 126.167131 188.675481 125"></polygon>
                    <path d="M187.071096,136.557211 L193.321248,136.556655 L193.320898,140.493125 L183.135473,140.494031 L183.135473,140.494031 C183.135473,139.450015 183.550262,138.448722 184.288334,137.710425 C185.026407,136.972128 186.027396,136.557305 187.071096,136.557211 Z" id="Path" fill="#2F2E41" transform="translate(188.228361, 138.525343) rotate(-15.220670) translate(-188.228361, -138.525343) "></path>
                    <polygon id="Path" fill="#A0616A" points="164.999558 138 162.289488 137.999746 161 126 165 126.000254"></polygon>
                    <path d="M159.863633,139 L166,139 L166,142 L156,142 L156,142 C156,141.204351 156.407059,140.441289 157.131631,139.87868 C157.856203,139.316071 158.838933,139 159.863633,139 Z" id="Path" fill="#2F2E41"></path>
                    <ellipse id="Oval" fill="#A0616A" cx="168.5" cy="51" rx="6.5" ry="6"></ellipse>
                    <path d="M166.205368,130 L161.799848,130 C161.174895,129.998869 160.657905,129.510328 160.617691,128.882894 C159.304952,107.887839 160.072841,92.827592 163.0342,81.4878421 C163.047164,81.4382341 163.063181,81.3894849 163.082158,81.3418765 L163.318087,80.7484454 C163.496504,80.2953797 163.932459,79.9984223 164.416852,80 L173.476277,80 C173.821775,80 174.150078,80.151623 174.374741,80.4156914 L175.605243,81.8601357 C175.629251,81.8882971 175.651721,81.9169717 175.673349,81.9471992 C181.222058,89.7317961 186.194648,104.950926 191.953737,125.407067 C192.13055,126.025274 191.785471,126.672626 191.175776,126.866485 L186.441242,128.390741 C185.879491,128.568683 185.272874,128.306344 185.014692,127.77381 L172.728564,102.13698 C172.552158,101.769087 172.156983,101.560936 171.755951,101.624676 C171.354919,101.688415 171.04277,102.008987 170.987684,102.413673 L167.377787,128.970746 C167.295825,129.559442 166.796231,129.99803 166.205368,130 Z" id="Path" fill="#2F2E41"></path>
                    <path d="M174.678756,81 C174.666171,81 174.653644,80.9997471 174.640995,80.9995069 L163.461271,80.6653845 C162.867188,80.6496553 162.375052,80.2241177 162.304888,79.6654879 C160.887685,68.8066405 164.774446,65.8975815 166.5113,65.1510539 C166.80651,65.024954 167.01045,64.7617845 167.048858,64.4573749 L167.199129,63.3191805 C167.224759,63.1181856 167.306779,62.927353 167.436667,62.7665076 C170.159869,59.4272612 173.878356,58.3579729 175.852552,58.0179231 C176.176131,57.9628747 176.5094,58.0358677 176.774547,58.2198595 C177.039694,58.4038512 177.213508,58.6827354 177.255407,58.9913967 L177.480554,60.6257058 C177.503492,60.7815954 177.569202,60.9290695 177.671132,61.0534226 C183.350437,68.0813494 177.023415,78.4581497 175.69739,80.4668339 L175.69739,80.4668339 C175.477134,80.7983774 175.09251,80.999695 174.678756,81 L174.678756,81 Z" id="Path" fill="#CCCCCC"></path>
                    <path d="M181.655144,51.7567826 C180.262817,49.6827562 178.593207,47.8335922 176.698565,46.2671623 C175.123505,44.965621 173.370272,43.8536591 171.436005,43.321756 C169.501616,42.7898529 167.365474,42.8803924 165.600698,43.8726413 C163.835801,44.8648955 162.011222,46.8363764 162,48.9506952 C161.99658,49.6299256 162.159868,50.5488777 162.792174,50.4313638 L162.975067,50.4570263 C164.500369,50.1311121 166.025629,49.8051996 167.550847,49.479289 C168.200531,51.864323 168.850166,54.2493641 169.499753,56.6344124 C169.636738,57.1370748 169.820374,57.6991999 170.271402,57.9135574 C170.696247,58.1154493 171.187352,57.9252381 171.61716,57.7354141 C171.687885,57.7041571 172.295247,56.2617808 172.295247,56.2617808 C172.32623,56.1699946 172.401742,56.1031361 172.492605,56.0870413 C172.583468,56.0709464 172.675448,56.1081361 172.733003,56.1842392 L173.093811,56.6613197 C173.235449,56.8485983 173.477211,56.913981 173.686429,56.8215885 C176.173796,55.7230888 178.661204,54.6245945 181.148652,53.5261055 C181.492351,53.3742807 181.876624,53.1760395 181.97626,52.7962892 C182.071801,52.4325021 181.861611,52.0646475 181.655144,51.7567826 Z" id="Path" fill="#2F2E41"></path>
                    <path d="M211.735974,142 L132.264026,142 C132.118209,142 132,141.776142 132,141.5 C132,141.223858 132.118209,141 132.264026,141 L211.735974,141 C211.881791,141 212,141.223858 212,141.5 C212,141.776142 211.881791,142 211.735974,142 Z" id="Path" fill="#3F3D56"></path>
                    <path d="M168.96746,101 C168.794634,100.999283 168.626512,100.941377 168.487431,100.834664 L167.330629,99.9604914 C167.13369,99.8109013 166.866368,99.8109013 166.66943,99.9604914 L165.512628,100.834664 C165.226428,101.050947 164.838887,101.050962 164.552672,100.834699 C164.266457,100.618437 164.146662,100.235083 164.255935,99.8851149 L164.697809,98.4706614 C164.773629,98.2295967 164.691019,97.9651974 164.493438,97.8165492 L163.336636,96.9422445 C163.050444,96.7259364 162.930701,96.3425544 163.04003,95.9925967 C163.149359,95.642639 163.462895,95.4056997 163.816665,95.4056915 L165.246523,95.4056915 C165.490353,95.4061543 165.706565,95.2427862 165.781523,95.0014509 L166.223337,93.5870001 C166.332629,93.2369894 166.64619,93 167,93 C167.353805,93 167.667366,93.2369894 167.776658,93.5870001 L168.218533,95.0014509 C168.293464,95.2427808 168.50966,95.4061533 168.753477,95.4056915 L170.183335,95.4056915 C170.537105,95.4056997 170.850641,95.642639 170.95997,95.9925967 C171.069299,96.3425544 170.949556,96.7259364 170.663364,96.9422445 L169.506562,97.8164197 C169.309027,97.9651619 169.226452,98.2295695 169.302241,98.4706614 L169.744116,99.8851149 C169.857536,100.235051 169.736961,100.620944 169.447424,100.834664 C169.308362,100.941365 169.140264,100.999271 168.96746,101 L168.96746,101 Z" id="Path" fill="#FFFFFF"></path>
                    <path d="M172.551108,97.4837803 C173.245477,97.0122824 173.68847,96.2672316 173.760886,95.4491062 C173.833302,94.6309808 173.527702,93.8238209 172.926318,93.244817 L175,69 L168.825823,69.8223281 L168.708364,93.3783721 C167.749605,94.4443686 167.765893,96.0361565 168.746278,97.0835539 C169.726663,98.1309512 171.36126,98.302893 172.551108,97.4837803 L172.551108,97.4837803 Z" id="Path" fill="#A0616A"></path>
                    <path d="M175.634034,72 C175.521297,72 175.409149,71.984395 175.301047,71.9536903 L168.840033,70.1298479 C168.526039,70.0412601 168.265059,69.8304991 168.120435,69.5487198 C167.975811,69.2669405 167.960766,68.9399044 168.078951,68.646988 L170.469994,62.7184658 C170.676124,62.2009122 171.246335,61.9065454 171.809886,62.0267573 L176.078431,62.9173518 C176.628083,63.0322531 177.014881,63.5061192 176.999561,64.0458268 L176.800974,70.9073523 C176.78327,71.5142702 176.266623,71.9980203 175.634021,72 L175.634034,72 Z" id="Path" fill="#CCCCCC"></path>
                    <path d="M114.150342,103 L1.84965781,103 C0.828595088,102.998862 0,102.177129 0,101.163121 L0,67.8368794 C0,66.8228707 0.828595088,66.0011381 1.84965781,66 L114.150342,66 C115.171406,66.0011367 116,66.8228701 116,67.8368794 L116,101.163121 C116,102.17713 115.171406,102.998863 114.150342,103 Z M1.84965781,66.5248227 C1.12033806,66.5256614 0.52847366,67.1125982 0.52847366,67.8368794 L0.52847366,101.163121 C0.52847366,101.887402 1.12033806,102.474339 1.84965781,102.475177 L114.150342,102.475177 C114.879667,102.47435 115.471526,101.887407 115.471526,101.163121 L115.471526,67.8368794 C115.471526,67.1125934 114.879667,66.5256499 114.150342,66.5248227 L1.84965781,66.5248227 Z" id="Shape" fill="#3F3D56"></path>
                    <path d="M51.4593053,117 C51.2432743,116.999103 51.0331228,116.926721 50.8592718,116.793331 L49.4132716,115.700611 C49.1670997,115.513624 48.832948,115.513624 48.5867761,115.700611 L47.1407759,116.793331 C46.7830257,117.063691 46.2985958,117.063712 45.9408242,116.793383 C45.5830526,116.523054 45.4333083,116.043856 45.5699018,115.606392 L46.1222437,113.838326 C46.2169847,113.536964 46.1137727,113.206454 45.8668587,113.020521 L44.4208585,111.927801 C44.0630882,111.657446 43.9133764,111.178216 44.0500247,110.740756 C44.186673,110.303296 44.5785991,110.007112 45.0208194,110.007112 L46.8082137,110.007112 C47.1129822,110.007689 47.3832249,109.803474 47.476888,109.501813 L48.0291521,107.733747 C48.1657875,107.296232 48.5577491,107 49.0000161,107 C49.4422831,107 49.8342446,107.296232 49.97088,107.733747 L50.5231416,109.501813 C50.6168054,109.803473 50.8870476,110.007688 51.1918158,110.007112 L52.9792102,110.007112 C53.4214209,110.007131 53.8133302,110.303316 53.9499751,110.740767 C54.0866199,111.178217 53.9369208,111.657437 53.5791684,111.927801 L52.1331708,113.020521 C51.8862566,113.206454 51.7830437,113.536963 51.8777832,113.838326 L52.4301251,115.606392 C52.5719006,116.043813 52.4211827,116.526181 52.0592609,116.793331 C51.8854328,116.926707 51.6753101,116.999089 51.4593053,117 L51.4593053,117 Z" id="Path" fill="#61366F"></path>
                    <path d="M65.4592719,117 C65.2432401,116.999102 65.0330878,116.92672 64.8592357,116.793332 L63.4132289,115.700612 C63.1670559,115.513624 62.8329027,115.513624 62.5867296,115.700612 L61.1407228,116.793332 C60.7829715,117.063695 60.2985369,117.063718 59.9407622,116.793388 C59.5829875,116.523058 59.4332436,116.043857 59.5698415,115.606392 L60.122186,113.838327 C60.2169251,113.536964 60.1137119,113.206455 59.8667972,113.020522 L58.4207904,111.927802 C58.0630532,111.657416 57.913377,111.178191 58.0500378,110.740746 C58.1866985,110.303301 58.5786146,110.007127 59.0208266,110.007113 L60.8081513,110.007113 C61.1129205,110.00769 61.3831635,109.803475 61.476826,109.501815 L62.0291705,107.733749 C62.1657868,107.296236 62.5577392,107 63,107 C63.4422608,107 63.8342132,107.296236 63.9708295,107.733749 L64.5230962,109.501815 C64.6167906,109.803486 64.8870596,110.007697 65.1918487,110.007113 L66.9791734,110.007113 C67.4213854,110.007127 67.8133015,110.303301 67.9499622,110.740746 C68.086623,111.178191 67.9369468,111.657416 67.5792096,111.927802 L66.1332028,113.020522 C65.886238,113.206417 65.7829879,113.536947 65.8777388,113.838327 L66.4300807,115.606392 C66.5718567,116.043813 66.4211382,116.526181 66.0592148,116.793332 C65.8853904,116.926705 65.6752725,116.999086 65.4592719,117 L65.4592719,117 Z" id="Path" fill="#61366F"></path>
                    <path d="M81.4592596,117 C81.2432521,116.99909 81.0331266,116.926708 80.8592962,116.793332 L79.4132923,115.700612 C79.1669376,115.51411 78.8330676,115.51411 78.5867129,115.700612 L77.140709,116.793332 C76.7829672,117.063698 76.2985366,117.063718 75.9407739,116.793382 C75.5830113,116.523045 75.4332909,116.043841 75.5699163,115.606393 L76.1221828,113.838328 C76.2169242,113.536965 76.1137118,113.206455 75.8667967,113.020522 L74.4207903,111.927803 C74.0630531,111.657417 73.9133771,111.178192 74.0500378,110.740747 C74.1866985,110.303302 74.5786144,110.007128 75.0208263,110.007115 L76.8081506,110.007115 C77.1129204,110.007692 77.3831642,109.803477 77.4768277,109.501816 L78.029172,107.733751 C78.1657868,107.296237 78.557739,107 79,107 C79.442261,107 79.8342132,107.296237 79.970828,107.733751 L80.5231723,109.501816 C80.6168365,109.803476 80.8870799,110.007691 81.1918494,110.007115 L82.9791737,110.007115 C83.4213856,110.007128 83.8133015,110.303302 83.9499622,110.740747 C84.0866229,111.178192 83.9369469,111.657417 83.5792097,111.927803 L82.1332033,113.020522 C81.8862882,113.206455 81.7830758,113.536965 81.8778172,113.838328 L82.4300837,115.606393 C82.571848,116.043796 82.4211679,116.526142 82.0592956,116.793332 C81.885438,116.926709 81.6752894,116.99909 81.4592596,117 L81.4592596,117 Z" id="Path" fill="#61366F"></path>
                    <path d="M95.4593627,117 C95.2433308,116.999103 95.0331785,116.92672 94.8593265,116.793331 L93.4133197,115.700611 C93.1671466,115.513623 92.8329934,115.513623 92.5868204,115.700611 L91.1408006,116.793339 C90.7830493,117.063704 90.2986147,117.063726 89.94084,116.793396 C89.5830653,116.523065 89.4333213,116.043864 89.5699193,115.606399 L90.1222612,113.838333 C90.2170376,113.537001 90.1137761,113.206499 89.8667972,113.020688 L88.4207904,111.927806 C88.0630532,111.657419 87.913377,111.178194 88.0500378,110.740749 C88.1866985,110.303304 88.5786146,110.007129 89.0208266,110.007116 L90.8081513,110.007116 C91.1129404,110.007699 91.3832094,109.803488 91.4769038,109.501817 L92.0291705,107.73375 C92.1657868,107.296236 92.5577392,107 93,107 C93.4422608,107 93.8342132,107.296236 93.9708295,107.73375 L94.523174,109.501817 C94.6168365,109.803477 94.8870795,110.007692 95.1918487,110.007116 L96.9791734,110.007116 C97.4213854,110.007129 97.8133015,110.303304 97.9499622,110.740749 C98.086623,111.178194 97.9369468,111.657419 97.5792096,111.927806 L96.1332028,113.020526 C95.8862881,113.20646 95.7830749,113.536969 95.877814,113.838333 L96.4301585,115.606399 C96.5719431,116.043811 96.4212422,116.526177 96.059334,116.793339 C95.8855006,116.926715 95.6753721,116.999094 95.4593627,117 Z" id="Path" fill="#61366F"></path>
                    <path d="M106.58921,117 C106.356667,116.999028 106.130444,116.921236 105.943233,116.777867 C105.55348,116.490334 105.391169,115.97126 105.543819,115.500527 L106.085349,113.768739 C106.164877,113.515784 106.078153,113.238401 105.870747,113.082347 L104.453185,112.011928 C104.067926,111.721038 103.906716,111.2054 104.053876,110.734713 C104.201036,110.264026 104.62309,109.945361 105.099287,109.945393 L106.85141,109.945393 C107.107488,109.945891 107.334548,109.774408 107.413182,109.521123 L107.954713,107.789335 C108.101868,107.318665 108.523894,107 109.000074,107 C109.476253,107 109.898279,107.318665 110.045435,107.789335 L110.586841,109.521123 C110.665516,109.774399 110.892581,109.945871 111.148664,109.945393 L112.90079,109.945393 C113.376961,109.945411 113.798971,110.264078 113.946122,110.73474 C114.093274,111.205402 113.9321,111.721014 113.546889,112.011928 L112.12939,113.082347 C111.921894,113.238332 111.835128,113.51577 111.914727,113.768739 L112.456194,115.500527 C112.603318,115.971214 112.4421,116.48683 112.056854,116.77772 C111.671608,117.068609 111.149953,117.068612 110.764704,116.777727 L109.347264,115.707438 C109.140363,115.550575 108.85966,115.550575 108.652759,115.707438 L107.235258,116.777727 C107.048071,116.921213 106.821802,116.999061 106.58921,117 Z M109.000033,115.061172 C109.23221,115.061212 109.458388,115.137814 109.64601,115.279953 L111.063508,116.350242 C111.270543,116.506662 111.550953,116.506708 111.758036,116.350357 C111.965119,116.194005 112.051755,115.916833 111.972618,115.663847 L111.431212,113.932062 C111.283128,113.461372 111.444529,112.945165 111.830553,112.654859 L113.24799,111.584443 C113.45503,111.428097 113.541661,111.150979 113.462577,110.898017 C113.383493,110.645055 113.156681,110.473784 112.900759,110.473775 L111.148633,110.473775 C110.672176,110.474692 110.249695,110.155675 110.103305,109.684443 L109.561836,107.952658 C109.482766,107.69966 109.255931,107.528359 108.999981,107.528359 C108.744031,107.528359 108.517196,107.69966 108.438126,107.952658 L107.896657,109.684443 C107.75031,110.15568 107.327839,110.474709 106.85139,110.473775 L105.099266,110.473775 C104.843335,110.47376 104.616502,110.645023 104.537404,110.897991 C104.458305,111.150958 104.544934,111.428091 104.751982,111.584443 L106.169544,112.654859 C106.555497,112.945219 106.716864,113.461383 106.568834,113.932062 L106.027304,115.663847 C105.948225,115.916822 106.034875,116.193947 106.241936,116.350282 C106.448996,116.506617 106.729367,116.506601 106.936411,116.350242 L108.353973,115.279953 C108.541628,115.137817 108.767831,115.061217 109.000033,115.061172 L109.000033,115.061172 Z" id="Shape" fill="#3F3D56"></path>
                    <path d="M15.7105263,74 C14.7658287,74 14,74.6715729 14,75.5 C14,76.3284271 14.7658287,77 15.7105263,77 L102.289474,77 C103.234171,77 104,76.3284271 104,75.5 C104,74.6715729 103.234171,74 102.289474,74 L15.7105263,74 Z" id="Path" fill="#CCCCCC"></path>
                    <path d="M15.7105263,83 C14.7658287,83 14,83.6715729 14,84.5 C14,85.3284271 14.7658287,86 15.7105263,86 L102.289474,86 C103.234171,86 104,85.3284271 104,84.5 C104,83.6715729 103.234171,83 102.289474,83 L15.7105263,83 Z" id="Path" fill="#CCCCCC"></path>
                    <path d="M15.7105263,92 C14.7658287,92 14,92.6715729 14,93.5 C14,94.3284271 14.7658287,95 15.7105263,95 L102.289474,95 C103.234171,95 104,94.3284271 104,93.5 C104,92.6715729 103.234171,92 102.289474,92 L15.7105263,92 Z" id="Path" fill="#CCCCCC"></path>
                    <path d="M15.7105263,74 C14.7658287,74 14,74.6715729 14,75.5 C14,76.3284271 14.7658287,77 15.7105263,77 L102.289474,77 C103.234171,77 104,76.3284271 104,75.5 C104,74.6715729 103.234171,74 102.289474,74 L15.7105263,74 Z" id="Path" fill="#CCCCCC"></path>
                    <path d="M15.7105263,83 C14.7658287,83 14,83.6715729 14,84.5 C14,85.3284271 14.7658287,86 15.7105263,86 L102.289474,86 C103.234171,86 104,85.3284271 104,84.5 C104,83.6715729 103.234171,83 102.289474,83 L15.7105263,83 Z" id="Path" fill="#CCCCCC"></path>
                    <path d="M15.7105263,92 C14.7658287,92 14,92.6715729 14,93.5 C14,94.3284271 14.7658287,95 15.7105263,95 L102.289474,95 C103.234171,95 104,94.3284271 104,93.5 C104,92.6715729 103.234171,92 102.289474,92 L15.7105263,92 Z" id="Path" fill="#CCCCCC"></path>
                    <path d="M114.150342,37 L1.84965781,37 C0.828595088,36.9988619 0,36.1771293 0,35.1631206 L0,1.83687943 C0,0.822870732 0.828595088,0.00113811722 1.84965781,0 L114.150342,0 C115.171406,0.00113667417 116,0.822870134 116,1.83687943 L116,35.1631206 C116,36.1771299 115.171406,36.9988633 114.150342,37 Z M1.84965781,0.524822695 C1.12033806,0.525661403 0.52847366,1.11259819 0.52847366,1.83687943 L0.52847366,35.1631206 C0.52847366,35.8874018 1.12033806,36.4743386 1.84965781,36.4751773 L114.150342,36.4751773 C114.879667,36.4743501 115.471526,35.8874066 115.471526,35.1631206 L115.471526,1.83687943 C115.471526,1.11259341 114.879667,0.52564986 114.150342,0.524822695 L1.84965781,0.524822695 Z" id="Shape" fill="#3F3D56"></path>
                    <path d="M51.4593053,51 C51.2432743,50.9991029 51.0331228,50.9267208 50.8592718,50.7933315 L49.4132716,49.7006114 C49.1670997,49.5136241 48.832948,49.5136241 48.5867761,49.7006114 L47.1407759,50.7933315 C46.7830257,51.0636914 46.2985958,51.0637121 45.9408242,50.7933829 C45.5830526,50.5230537 45.4333083,50.0438561 45.5699018,49.6063921 L46.1222437,47.8383265 C46.2169847,47.536964 46.1137727,47.2064538 45.8668587,47.0205207 L44.4208585,45.9278005 C44.0630882,45.6574459 43.9133764,45.1782162 44.0500247,44.7407561 C44.186673,44.303296 44.5785991,44.0071115 45.0208194,44.0071118 L46.8082137,44.0071118 C47.1129822,44.0076889 47.3832249,43.8034739 47.476888,43.501813 L48.0291521,41.7337474 C48.1657875,41.2962318 48.5577491,41 49.0000161,41 C49.4422831,41 49.8342446,41.2962318 49.97088,41.7337474 L50.5231416,43.501813 C50.6168054,43.8034734 50.8870476,44.007688 51.1918158,44.0071118 L52.9792102,44.0071118 C53.4214209,44.0071307 53.8133302,44.3033159 53.9499751,44.7407667 C54.0866199,45.1782175 53.9369208,45.6574372 53.5791684,45.9278005 L52.1331708,47.0205207 C51.8862566,47.2064536 51.7830437,47.5369634 51.8777832,47.8383265 L52.4301251,49.6063921 C52.5719006,50.0438132 52.4211827,50.5261809 52.0592609,50.7933315 C51.8854328,50.9267075 51.6753101,50.9990891 51.4593053,51 L51.4593053,51 Z" id="Path" fill="#61366F"></path>
                    <path d="M65.4592719,51 C65.2432401,50.9991023 65.0330878,50.9267203 64.8592357,50.7933315 L63.4132289,49.7006116 C63.1670559,49.5136244 62.8329027,49.5136244 62.5867296,49.7006116 L61.1407228,50.7933315 C60.7829715,51.0636954 60.2985369,51.0637181 59.9407622,50.7933878 C59.5829875,50.5230575 59.4332436,50.043857 59.5698415,49.6063924 L60.122186,47.8383272 C60.2169251,47.5369641 60.1137119,47.206455 59.8667972,47.0205215 L58.4207904,45.9278016 C58.0630532,45.6574155 57.913377,45.1781906 58.0500378,44.7407458 C58.1866985,44.303301 58.5786146,44.007127 59.0208266,44.0071133 L60.8081513,44.0071133 C61.1129205,44.00769 61.3831635,43.803475 61.476826,43.5018146 L62.0291705,41.7337494 C62.1657868,41.2962362 62.5577392,41 63,41 C63.4422608,41 63.8342132,41.2962362 63.9708295,41.7337494 L64.5230962,43.5018146 C64.6167906,43.8034861 64.8870596,44.007697 65.1918487,44.0071133 L66.9791734,44.0071133 C67.4213854,44.007127 67.8133015,44.303301 67.9499622,44.7407458 C68.086623,45.1781906 67.9369468,45.6574155 67.5792096,45.9278016 L66.1332028,47.0205215 C65.886238,47.206417 65.7829879,47.5369471 65.8777388,47.8383272 L66.4300807,49.6063924 C66.5718567,50.0438134 66.4211382,50.526181 66.0592148,50.7933315 C65.8853904,50.9267047 65.6752725,50.9990862 65.4592719,51 L65.4592719,51 Z" id="Path" fill="#61366F"></path>
                    <path d="M81.4592596,51 C81.2432521,50.9990899 81.0331266,50.9267083 80.8592962,50.7933316 L79.4132923,49.7006119 C79.1669376,49.5141103 78.8330676,49.5141103 78.5867129,49.7006119 L77.140709,50.7933316 C76.7829672,51.0636978 76.2985366,51.063718 75.9407739,50.7933816 C75.5830113,50.5230452 75.4332909,50.0438412 75.5699163,49.6063927 L76.1221828,47.8383278 C76.2169242,47.5369653 76.1137118,47.2064554 75.8667967,47.0205223 L74.4207903,45.9278026 C74.0630531,45.6574165 73.9133771,45.1781916 74.0500378,44.7407469 C74.1866985,44.3033022 74.5786144,44.0071284 75.0208263,44.0071146 L76.8081506,44.0071146 C77.1129204,44.0076917 77.3831642,43.8034768 77.4768277,43.501816 L78.029172,41.7337511 C78.1657868,41.2962372 78.557739,41 79,41 C79.442261,41 79.8342132,41.2962372 79.970828,41.7337511 L80.5231723,43.501816 C80.6168365,43.8034763 80.8870799,44.0076908 81.1918494,44.0071146 L82.9791737,44.0071146 C83.4213856,44.0071284 83.8133015,44.3033022 83.9499622,44.7407469 C84.0866229,45.1781916 83.9369469,45.6574165 83.5792097,45.9278026 L82.1332033,47.0205223 C81.8862882,47.2064554 81.7830758,47.5369653 81.8778172,47.8383278 L82.4300837,49.6063927 C82.571848,50.0437959 82.4211679,50.5261418 82.0592956,50.7933316 C81.885438,50.926709 81.6752894,50.9990898 81.4592596,51 L81.4592596,51 Z" id="Path" fill="#61366F"></path>
                    <path d="M106.58921,51 C106.356667,50.9990282 106.130444,50.9212366 105.943233,50.7778673 C105.55348,50.4903343 105.391169,49.9712611 105.543819,49.500529 L106.085349,47.7687436 C106.164877,47.5157887 106.078153,47.2384062 105.870747,47.0823519 L104.453185,46.0119345 C104.067926,45.7210454 103.906716,45.2054077 104.053876,44.7347213 C104.201036,44.2640349 104.62309,43.9453701 105.099287,43.9454018 L106.85141,43.9454018 C107.107492,43.9458986 107.334553,43.7744091 107.413182,43.5211195 L107.954713,41.789334 C108.101868,41.3186645 108.523894,41 109.000074,41 C109.476253,41 109.898279,41.3186645 110.045435,41.789334 L110.586841,43.5211195 C110.665512,43.7744008 110.892577,43.945878 111.148664,43.9454018 L112.90079,43.9454018 C113.376961,43.9454206 113.798971,44.2640866 113.946122,44.7347481 C114.093274,45.2054096 113.9321,45.721021 113.546889,46.0119345 L112.12939,47.0823519 C111.921894,47.2383373 111.835128,47.515775 111.914727,47.7687436 L112.456194,49.500529 C112.603318,49.9712158 112.4421,50.4868309 112.056854,50.77772 C111.671608,51.068609 111.149953,51.068612 110.764704,50.7777273 L109.347264,49.7074393 C109.140363,49.5505769 108.85966,49.5505769 108.652759,49.7074393 L107.235258,50.7777273 C107.048071,50.9212134 106.821802,50.9990611 106.58921,51 Z M109.000033,49.0611748 C109.23221,49.0612145 109.458388,49.1378166 109.64601,49.279955 L111.063508,50.350243 C111.270543,50.5066628 111.550953,50.5067091 111.758036,50.3503576 C111.965119,50.1940061 112.051755,49.9168341 111.972618,49.6638486 L111.431212,47.9320659 C111.283128,47.4613763 111.444529,46.9451708 111.830553,46.6548649 L113.24799,45.5844501 C113.45503,45.4281041 113.541661,45.1509866 113.462577,44.8980251 C113.383493,44.6450635 113.156681,44.4737926 112.900759,44.473784 L111.148633,44.473784 C110.672176,44.474701 110.249695,44.1556842 110.103305,43.6844523 L109.561836,41.9526695 C109.482766,41.6996721 109.255931,41.5283716 108.999981,41.5283716 C108.744031,41.5283716 108.517196,41.6996721 108.438126,41.9526695 L107.896657,43.6844523 C107.75031,44.1556893 107.327839,44.4747178 106.85139,44.473784 L105.099266,44.473784 C104.843335,44.4737686 104.616502,44.6450312 104.537404,44.8979987 C104.458305,45.1509662 104.544934,45.4280981 104.751982,45.5844501 L106.169544,46.6548649 C106.555497,46.9452244 106.716864,47.4613877 106.568834,47.9320659 L106.027304,49.6638486 C105.948225,49.9168231 106.034875,50.1939482 106.241936,50.3502829 C106.448996,50.5066175 106.729367,50.5066014 106.936411,50.350243 L108.353973,49.279955 C108.541628,49.1378199 108.767831,49.0612192 109.000033,49.0611748 L109.000033,49.0611748 Z" id="Shape" fill="#3F3D56"></path>
                    <path d="M90.5891999,51 C90.3566561,50.9990273 90.1304325,50.9212346 89.9432222,50.7778644 C89.5534682,50.490331 89.3911574,49.9712571 89.5438068,49.5005244 L90.085338,47.7687393 C90.1648655,47.5157833 90.0781413,47.2384 89.8707357,47.0823441 L88.453172,46.0119279 C88.0679208,45.7210357 87.9067177,45.2054031 88.0538769,44.734722 C88.2010361,44.2640409 88.6230831,43.9453776 89.0992743,43.9454031 L90.8514003,43.9454031 C91.1074817,43.945899 91.3345427,43.7744096 91.4131731,43.5211201 L91.9547043,41.7893351 C92.1018602,41.3186649 92.5238867,41 93.0000668,41 C93.476247,41 93.8982735,41.3186649 94.0454294,41.7893351 L94.586836,43.5211201 C94.6655078,43.7744013 94.8925731,43.9458785 95.1486596,43.9454031 L96.9007883,43.9454031 C97.3769598,43.9454218 97.7989704,44.2640883 97.9461223,44.7347504 C98.0932742,45.2054125 97.9320998,45.7210246 97.546888,46.0119384 L96.1293878,47.0823546 C95.9218912,47.2383417 95.8351251,47.5157802 95.9147245,47.7687499 L96.4561921,49.5005349 C96.6033178,49.9712228 96.4421005,50.4868401 96.0568531,50.7777304 C95.6716058,51.0686208 95.1499497,51.0686237 94.7646994,50.7777376 L93.3472577,49.7074482 C93.1403559,49.5505855 92.8596532,49.5505855 92.6527515,49.7074482 L91.2352488,50.7777376 C91.0480591,50.9212186 90.8217906,50.9990626 90.5891999,51 L90.5891999,51 Z M93.0000262,49.0611722 C93.2322032,49.0612122 93.4583808,49.1378134 93.6460039,49.2799501 L95.063504,50.3502395 C95.2705392,50.5066585 95.5509482,50.5067047 95.7580311,50.3503539 C95.9651141,50.1940032 96.0517504,49.9168322 95.9726151,49.6638469 L95.4312085,47.9320592 C95.2831236,47.4613698 95.4445255,46.9451641 95.8305501,46.6548592 L97.2479893,45.5844403 C97.455027,45.4280934 97.5416565,45.150977 97.4625725,44.8980166 C97.3834886,44.6450562 97.156678,44.4737856 96.9007577,44.4737754 L95.1486291,44.4737754 C94.672171,44.4746923 94.24969,44.1556751 94.1032996,43.6844427 L93.5618295,41.9526549 C93.4827602,41.6996571 93.2559241,41.5283564 92.9999741,41.5283564 C92.7440241,41.5283564 92.517188,41.6996571 92.4381187,41.9526549 L91.8966485,43.6844427 C91.7503037,44.1556728 91.3278424,44.4747 90.8514003,44.4737754 L89.0992743,44.4737754 C88.8433441,44.4737616 88.6165124,44.6450238 88.5374143,44.8979902 C88.4583163,45.1509566 88.5449437,45.4280874 88.7519894,45.5844403 L90.1695531,46.6548592 C90.5555069,46.9452177 90.716875,47.4613812 90.5688439,47.9320592 L90.0273127,49.6638469 C89.9482355,49.9168213 90.0348868,50.1939453 90.2419469,50.3502792 C90.449007,50.5066132 90.7293777,50.5065971 90.9364212,50.3502395 L92.3539849,49.2799501 C92.5416358,49.137821 92.767831,49.0612214 93.0000262,49.0611722 L93.0000262,49.0611722 Z" id="Shape" fill="#3F3D56"></path>
                    <path d="M15.7105263,8 C14.7658287,8 14,8.67157288 14,9.5 C14,10.3284271 14.7658287,11 15.7105263,11 L102.289474,11 C103.234171,11 104,10.3284271 104,9.5 C104,8.67157288 103.234171,8 102.289474,8 L15.7105263,8 Z" id="Path" fill="#CCCCCC"></path>
                    <path d="M15.7105263,17 C14.7658287,17 14,17.6715729 14,18.5 C14,19.3284271 14.7658287,20 15.7105263,20 L102.289474,20 C103.234171,20 104,19.3284271 104,18.5 C104,17.6715729 103.234171,17 102.289474,17 L15.7105263,17 Z" id="Path" fill="#CCCCCC"></path>
                    <path d="M15.7105263,26 C14.7658287,26 14,26.6715729 14,27.5 C14,28.3284271 14.7658287,29 15.7105263,29 L102.289474,29 C103.234171,29 104,28.3284271 104,27.5 C104,26.6715729 103.234171,26 102.289474,26 L15.7105263,26 Z" id="Path" fill="#CCCCCC"></path>
                    <path d="M15.7105263,8 C14.7658287,8 14,8.67157288 14,9.5 C14,10.3284271 14.7658287,11 15.7105263,11 L102.289474,11 C103.234171,11 104,10.3284271 104,9.5 C104,8.67157288 103.234171,8 102.289474,8 L15.7105263,8 Z" id="Path" fill="#CCCCCC"></path>
                    <path d="M15.7105263,17 C14.7658287,17 14,17.6715729 14,18.5 C14,19.3284271 14.7658287,20 15.7105263,20 L102.289474,20 C103.234171,20 104,19.3284271 104,18.5 C104,17.6715729 103.234171,17 102.289474,17 L15.7105263,17 Z" id="Path" fill="#CCCCCC"></path>
                    <path d="M15.7105263,26 C14.7658287,26 14,26.6715729 14,27.5 C14,28.3284271 14.7658287,29 15.7105263,29 L102.289474,29 C103.234171,29 104,28.3284271 104,27.5 C104,26.6715729 103.234171,26 102.289474,26 L15.7105263,26 Z" id="Path" fill="#CCCCCC"></path>
                </g>
            </g>
        </g>
    </g>
</svg>
