<?xml version="1.0" encoding="UTF-8"?>
<svg width="82px" height="88px" viewBox="0 0 82 88" xmlns="http://www.w3.org/2000/svg" xmlns:xlink="http://www.w3.org/1999/xlink">
    <g id="Onboarding-Option-2" stroke="none" stroke-width="1" fill="none" fill-rule="evenodd">
        <g id="Notified-modal" transform="translate(-151.000000, -267.000000)" fill="#61366F" fill-rule="nonzero">
            <g id="np_stars_2070558_000000" transform="translate(151.000000, 267.000000)">
                <path d="M10.316,27.324 L8.1949,39.687 C8.05818,40.47606 8.36678,41.2495 8.99959,41.7065 C9.35115,41.96431 9.76912,42.09322 10.18709,42.09322 C10.51912,42.09322 10.85506,42.011189 11.16756,41.84713 L22.26956,36.01123 L33.37156,41.84713 C34.07859,42.21822 34.91066,42.16744 35.54346,41.70651 C36.17627,41.24948 36.48487,40.47211 36.34815,39.68701 L34.22705,27.32401 L43.20755,18.57011 C43.77786,18.01152 43.98489,17.20681 43.74271,16.46461 C43.50052,15.72242 42.8599,15.19121 42.07081,15.07401 L29.65681,13.26931 L24.10991,2.02331 C23.75835,1.30847 23.05131,0.86311 22.27011,0.86311 C21.48891,0.86311 20.78571,1.30842 20.43031,2.02331 L14.88341,13.26931 L2.46941,15.07401 C1.68035,15.18729 1.03971,15.72245 0.79751,16.46461 C0.55532,17.2068 0.762354,18.01541 1.33267,18.57011 L10.316,27.324 Z M16.2691,17.015 C17.01519,16.90562 17.6832,16.42125 18.0191,15.7416 L22.273,7.1205 L26.5269,15.7416 C26.85893,16.41738 27.5308,16.9057 28.2769,17.0111 L37.7886,18.3939 L30.9058,25.1048 C30.36674,25.63214 30.10892,26.4173 30.23783,27.1634 L31.86283,36.6361 L23.35503,32.1634 C22.68706,31.81184 21.85893,31.81184 21.19093,32.1634 L12.68313,36.6361 L14.30813,27.1595 C14.43704,26.41731 14.17922,25.6283 13.64016,25.1009 L6.75736,18.39 L16.2691,17.015 Z" id="Shape"></path>
                <path d="M65.328,62.863 L54.527,61.2927 L49.6989,51.5075 C49.34734,50.79266 48.6403,50.3473 47.8591,50.3473 C47.0779,50.3473 46.3747,50.79261 46.0193,51.5075 L41.1912,61.2927 L30.3902,62.863 C29.60114,62.97628 28.9605,63.51144 28.7183,64.2536 C28.47611,64.99579 28.683144,65.8044 29.25346,66.3591 L37.06986,73.9763 L35.22606,84.7343 C35.09325,85.51946 35.39794,86.2929 36.03075,86.7538 C36.65966,87.21083 37.49165,87.26552 38.19875,86.89442 L47.85895,81.81632 L57.51915,86.89442 C57.83165,87.05848 58.16759,87.14051 58.49962,87.14051 C58.9215,87.14051 59.33556,87.0116 59.68712,86.75379 C60.31603,86.29676 60.62462,85.52329 60.49181,84.73429 L58.64801,73.97629 L66.46441,66.35909 C67.03472,65.8005 67.24175,64.99579 66.99957,64.25359 C66.75738,63.5114 66.11676,62.97629 65.32767,62.86299 L65.328,62.863 Z M55.324,71.7575 C54.78494,72.28484 54.52712,73.07 54.65603,73.8161 L56.00373,81.6833 L48.93733,77.9685 C48.60139,77.79272 48.2303,77.70288 47.85533,77.70288 C47.48036,77.70288 47.10533,77.788817 46.77333,77.9646 L39.70693,81.6794 L41.05853,73.8122 C41.18744,73.07001 40.92962,72.281 40.39056,71.7536 L34.67576,66.1794 L42.57416,65.031 C43.32025,64.92162 43.99216,64.43334 44.32416,63.7576 L47.85536,56.5974 L51.38656,63.7576 C51.71859,64.43338 52.39046,64.9217 53.13656,65.031 L61.03496,66.1794 L55.324,71.7575 Z" id="Shape"></path>
                <path d="M81.43,32.973 C81.18781,32.23081 80.54719,31.6996 79.7581,31.5824 L71.2659,30.348 L67.469,22.6527 C67.11744,21.93395 66.4104,21.4886 65.6292,21.4886 C64.848,21.4886 64.1448,21.93391 63.7894,22.6527 L59.9925,30.348 L51.5003,31.5824 C50.71124,31.69568 50.0706,32.23084 49.8284,32.973 C49.58621,33.71519 49.793244,34.5238 50.36356,35.0785 L56.50806,41.0668 L55.05886,49.5238 C54.92605,50.30896 55.23074,51.0824 55.86355,51.5433 C56.49636,52.00033 57.32445,52.05502 58.03155,51.68392 L65.62535,47.69172 L73.21915,51.68392 C73.53165,51.84798 73.86759,51.93001 74.19962,51.93001 C74.6215,51.93001 75.03556,51.8011 75.38712,51.54329 C76.01993,51.08626 76.32853,50.31279 76.19181,49.52379 L74.74261,41.06679 L80.88711,35.07849 C81.46523,34.5199 81.67227,33.71519 81.43008,32.97299 L81.43,32.973 Z M71.426,38.8519 C70.88694,39.37924 70.62912,40.1683 70.75803,40.9105 L71.71506,46.4808 L66.71506,43.8519 C66.38303,43.67612 66.00803,43.59018 65.63306,43.59018 C65.25809,43.59018 64.88306,43.676117 64.55106,43.8519 L59.55106,46.4808 L60.50418,40.9144 C60.63309,40.17221 60.37527,39.3832 59.83621,38.8558 L55.78931,34.9105 L61.37911,34.098 C62.1252,33.98862 62.79321,33.50425 63.12911,32.8246 L65.62911,27.7582 L68.12911,32.8246 C68.46114,33.50038 69.13301,33.9887 69.87911,34.0941 L75.46891,34.9066 L71.426,38.8519 Z" id="Shape"></path>
                <path d="M24.336,53.562 L17.9727,52.63622 L15.1289,46.87062 C14.77734,46.15187 14.0703,45.70652 13.2891,45.70652 C12.5079,45.70652 11.8047,46.15183 11.4493,46.87062 L8.6055,52.63622 L2.2422,53.562 C1.45314,53.67528 0.8125,54.21044 0.5703,54.9526 C0.32811,55.69479 0.535144,56.5034 1.10546,57.0581 L5.71096,61.5464 L4.62506,67.8862 C4.49225,68.67136 4.79694,69.4448 5.42975,69.9057 C6.06256,70.36273 6.89065,70.41742 7.59775,70.04632 L13.28915,67.05412 L18.98055,70.04632 C19.29305,70.21038 19.62899,70.29241 19.96102,70.29241 C20.38289,70.29241 20.79696,70.1635 21.14852,69.90569 C21.78133,69.44866 22.08993,68.67519 21.95321,67.88619 L20.86731,61.55029 L25.47281,57.06199 C26.04312,56.5034 26.25015,55.69869 26.00797,54.95649 C25.76578,54.2104 25.12516,53.67529 24.33607,53.56199 L24.336,53.562 Z M17.543,59.3315 C17.00394,59.85884 16.74612,60.644 16.87503,61.3901 L17.46487,64.8393 L14.36717,63.2104 C14.03514,63.03462 13.66014,62.94868 13.28517,62.94868 C12.9102,62.94868 12.53517,63.034617 12.20317,63.2104 L9.10547,64.8393 L9.69531,61.3901 C9.82031,60.64791 9.5664,59.8589 9.02734,59.3315 L6.52344,56.8901 L9.98824,56.38619 C10.73433,56.27681 11.40624,55.78853 11.73824,55.11279 L13.28514,51.97609 L14.83204,55.11279 C15.16407,55.78857 15.83594,56.27689 16.58204,56.38619 L20.04684,56.8901 L17.543,59.3315 Z" id="Shape"></path>
                <path d="M49.047,15.035 L48.32434,19.2538 C48.19153,20.03896 48.49622,20.8124 49.12903,21.2733 C49.76184,21.73033 50.58993,21.78502 51.29703,21.41392 L55.08613,19.42172 L58.87523,21.41392 C59.18773,21.57798 59.52367,21.66001 59.8557,21.66001 C60.27758,21.66001 60.69164,21.5311 61.0432,21.27329 C61.67601,20.81626 61.98461,20.04279 61.84789,19.25379 L61.12523,15.03499 L64.18773,12.04669 C64.75804,11.4881 64.96507,10.68339 64.72289,9.94119 C64.4807,9.199 63.84008,8.66779 63.05099,8.55059 L58.81659,7.9334 L56.92209,4.0975 C56.57053,3.37875 55.86349,2.9334 55.08229,2.9334 C54.30109,2.9334 53.59789,3.37871 53.24639,4.0936 L51.35189,7.9295 L47.11749,8.54669 C46.32843,8.65997 45.68779,9.19513 45.44559,9.93729 C45.2034,10.67948 45.410434,11.48809 45.98075,12.04279 L49.047,15.035 Z M52.7384,11.6834 C53.48449,11.57402 54.1564,11.08965 54.4884,10.41 L55.08606,9.1991 L55.68372,10.41 C56.01575,11.08578 56.68762,11.5741 57.43372,11.6795 L58.76962,11.87481 L57.80478,12.81622 C57.26572,13.34356 57.0079,14.13262 57.13681,14.87482 L57.36337,16.20292 L56.16807,15.57401 C55.5001,15.22245 54.67197,15.22245 54.00397,15.57401 L52.80867,16.20292 L53.03523,14.87482 C53.16414,14.13263 52.90632,13.34362 52.36726,12.81622 L51.40242,11.87481 L52.7384,11.6834 Z" id="Shape"></path>
            </g>
        </g>
    </g>
</svg>
