<?xml version="1.0" encoding="UTF-8"?>
<svg width="96px" height="96px" viewBox="0 0 96 96" version="1.1" xmlns="http://www.w3.org/2000/svg" xmlns:xlink="http://www.w3.org/1999/xlink">
    <!-- Generator: sketchtool 62 (101010) - https://sketch.com -->
    <title>8C308F53-832C-4505-9D6E-02A5D66F4D75@1x</title>
    <desc>Created with sketchtool.</desc>
    <g id="Sign-in-and-Home" stroke="none" stroke-width="1" fill="none" fill-rule="evenodd">
        <g id="Help-page" transform="translate(-409.000000, -408.000000)" fill="#A9AEB1" fill-rule="nonzero">
            <path d="M446.8048,493.2029 L446.8048,487.7029 C441.9064,486.80446 437.3048,484.8045 433.3048,482.1013 L429.4064,486.0036 C427.9064,487.5036 425.6056,487.5036 424.1056,486.0036 L420.004,481.902 C418.504,480.402 418.504,478.1012 420.004,476.6012 L423.9024,472.7028 C421.2032,468.7028 419.3008,464.1012 418.4024,459.2028 L412.8008,459.2028 C410.6992,459.2028 409,457.5036 409,455.402 L409,449.6012 C409,447.4996 410.6992,445.8004 412.8008,445.8004 L418.4024,445.8004 C419.30084,440.902 421.3008,436.402 424.004,432.4024 L420.004,428.4024 C418.504,426.9024 418.504,424.6016 420.004,423.1016 L424.1056,419 C425.6056,417.5 427.9064,417.5 429.4064,419 L433.4064,423 C437.4064,420.3008 441.9064,418.3984 446.8044,417.5 L446.8044,411.8008 C446.8044,409.6992 448.5036,408 450.6052,408 L456.406,408 C458.5076,408 460.2068,409.6992 460.2068,411.8008 L460.2068,417.5 C465.1052,418.39844 469.6052,420.3008 473.6048,423 L477.6048,419 C479.1048,417.5 481.4056,417.5 482.9056,419 L487.0072,423.1016 C488.5072,424.6016 488.5072,426.9024 487.0072,428.4024 L483.0072,432.4024 C485.7064,436.4024 487.6088,440.9024 488.6088,445.8004 L494.2104,445.8004 C496.312,445.8004 498.0112,447.4996 498.0112,449.6012 L498.0112,455.402 C498.0112,457.5036 496.312,459.2028 494.2104,459.2028 L488.6088,459.2028 C488.00724,462.5036 487.0072,465.5036 485.5072,468.402 L477.2064,460.1012 C480.2064,450.8004 477.50718,440.2032 469.5072,433.6012 C459.0072,424.8004 443.4052,426.1012 434.5072,436.6012 C425.7064,447.1012 427.0072,462.7032 437.5072,471.6012 C444.0072,477.1012 452.5072,478.6012 460.2062,476.4996 L468.7062,484.9996 C466.007,486.3004 463.2062,487.1988 460.2062,487.8004 L460.2062,493.3004 C460.2062,495.402 458.507,497.1012 456.4054,497.1012 L450.6046,497.1012 C448.4054,497.003544 446.8038,495.3043 446.8038,493.2028 L446.8048,493.2029 Z M493.4068,502.0037 L460.9068,469.5037 C459.2076,467.8045 456.9068,467.0037 454.5084,467.2029 C450.5084,467.50368 446.4068,466.1013 443.3094,463.0037 C439.6102,459.3045 438.3094,454.0037 439.5086,449.2027 C439.61016,448.90192 440.0086,448.7027 440.30938,449.00348 L446.20778,454.90188 C447.90698,456.60108 450.80938,456.60108 452.60618,454.90188 L455.30538,452.20268 C457.00458,450.50348 457.10618,447.60108 455.30538,445.80428 L449.10618,439.60508 C448.90696,439.40586 449.00462,438.90586 449.3054,438.8043 C454.3054,437.2027 460.0044,438.40586 463.9074,442.3043 C467.1066,445.5035 468.509,449.9059 468.009,454.1053 C467.70822,456.6053 468.509,459.1053 470.3098,460.9061 L502.4118,493.0081 C504.9118,495.5081 504.9118,499.4065 502.4118,501.9065 C499.9079,504.5042 495.9079,504.5042 493.4079,502.004156 L493.4068,502.0037 Z M499.9068,499.5037 C501.0084,498.4021 501.0084,496.6053 499.9068,495.5037 C498.8052,494.4021 497.0084,494.4021 495.9068,495.5037 C494.8052,496.6053 494.8052,498.4021 495.9068,499.5037 C497.0045,500.6053 498.8052,500.6053 499.9068,499.5037 Z" id="Support-Icon"></path>
        </g>
    </g>
</svg>