<?xml version="1.0" encoding="UTF-8"?>
<svg width="19px" height="20px" viewBox="0 0 19 20" xmlns="http://www.w3.org/2000/svg">
    <title>trashCan</title>
    <g id="Symbols" stroke="none" stroke-width="1" fill="currentColor" fill-rule="evenodd">
        <g id="Delete" transform="translate(0.000000, -4.000000)" fill-rule="nonzero">
            <g id="Group-3" transform="translate(0.000000, 4.000000)">
                <path d="M3.22115789,18.800172 C3.28448,19.4950752 3.85273684,20 4.54764211,20 L15.4531158,20 C16.1480211,20 16.7162737,19.4736858 16.7796,18.800172 L18,6 L2,6 L3.22115789,18.800172 Z M12.6733684,9.99998797 C12.6733684,9.64226273 12.9677684,9.32647421 13.3468842,9.32647421 C13.7046105,9.32647421 14.0204,9.62087332 14.0204,9.99998797 L14.0204,15.9999699 C14.0204,16.3576952 13.726,16.6734837 13.3468842,16.6734837 C12.9891579,16.6734837 12.6733684,16.3790846 12.6733684,15.9999699 L12.6733684,9.99998797 Z M9.32642105,9.99998797 C9.32642105,9.64226273 9.62082105,9.32647421 9.99993684,9.32647421 C10.3576632,9.32647421 10.6734526,9.62087332 10.6734526,9.99998797 L10.6734526,15.9999699 C10.6734526,16.3576952 10.3790526,16.6734837 9.99993684,16.6734837 C9.64221053,16.6734837 9.32642105,16.3790846 9.32642105,15.9999699 L9.32642105,9.99998797 Z M5.99989474,9.99998797 C5.99989474,9.64226273 6.29429474,9.32647421 6.67341053,9.32647421 C7.03113684,9.32647421 7.34692632,9.62087332 7.34692632,9.99998797 L7.34692632,15.9999699 C7.34692632,16.3576952 7.05252632,16.6734837 6.67341053,16.6734837 C6.31568421,16.6734837 5.99989474,16.3790846 5.99989474,15.9999699 L5.99989474,9.99998797 Z" id="Shape"></path>
                <path d="M17.6487513,2.14916567 L12.2231269,2.14916567 L12.2231269,1.42541716 C12.2231269,0.633619285 11.6225147,0 10.8719639,0 L8.14875126,0 C7.39820048,0 6.79758831,0.633619285 6.79758831,1.42541716 L6.79758831,2.14916567 L1.35116296,2.14916567 C0.600612179,2.14916567 0,2.78278496 0,3.57458284 C0,4.36638071 0.600612179,5 1.35116296,5 L17.648837,5 C18.3993878,5 19,4.36638071 19,3.57458284 C19,2.78278496 18.3993878,2.14916567 17.648837,2.14916567 L17.6487513,2.14916567 Z" id="Path"></path>
            </g>
        </g>
    </g>
</svg>
